<svg width="16" height="15" viewBox="0 0 16 15" fill="none" xmlns="http://www.w3.org/2000/svg">
<path fill-rule="evenodd" clip-rule="evenodd" d="M8.00008 0.770996L15.5813 6.18617C16.0307 6.50718 16.1348 7.13173 15.8138 7.58114C15.4928 8.03055 14.8683 8.13464 14.4188 7.81363L14 7.51446V14C14 14.5523 13.5523 15 13 15H3C2.44772 15 2 14.5523 2 14V7.51457L1.58132 7.81363C1.1319 8.13464 0.507353 8.03055 0.186344 7.58114C-0.134665 7.13173 -0.0305731 6.50718 0.418839 6.18617L8.00008 0.770996ZM8.00008 3.2288L12 6.08589V13H10V10C10 8.89543 9.10457 8 8 8C6.89543 8 6 8.89543 6 10V13H4V6.086L8.00008 3.2288Z" fill="#999999"/>
</svg>
