<svg width="16" height="16" viewBox="0 0 16 16" fill="none" xmlns="http://www.w3.org/2000/svg">
<g id="Icon-16px-2str / Close">
<g id="Vector">
<path d="M4.30602 4.30602C4.71405 3.89799 5.37559 3.89799 5.78361 4.30602L11.694 10.2164C12.102 10.6244 12.102 11.286 11.694 11.694C11.286 12.102 10.6244 12.102 10.2164 11.694L4.30602 5.78361C3.89799 5.37559 3.89799 4.71405 4.30602 4.30602Z" fill="#999999"/>
<path d="M11.694 4.30602C12.102 4.71405 12.102 5.37559 11.694 5.78361L5.78361 11.694C5.37559 12.102 4.71404 12.102 4.30602 11.694C3.89799 11.286 3.89799 10.6244 4.30602 10.2164L10.2164 4.30602C10.6244 3.89799 11.286 3.89799 11.694 4.30602Z" fill="#999999"/>
</g>
</g>
</svg>
