<!-- myOutput.svg -->
<!-- Generated using p5.plotSvg: -->
<!-- A Plotter-Oriented SVG Exporter for p5.js -->
<!-- Tue Nov 19 2024 02:34:47 GMT-0500 (Eastern Standard Time) -->
<!-- DPI: 96 -->
<svg xmlns="http://www.w3.org/2000/svg" width="6.375in" height="8.25in" viewBox="0 0 612 792">
  <style>
    circle, ellipse, line, path, polygon, polyline, rect, quad, text {
      fill: none;
      stroke: black;
      stroke-width: 1;
      stroke-linecap: round;
      stroke-linejoin: round;
      vector-effect: non-scaling-stroke;
    }
  </style>
<g vector-effect="non-scaling-stroke">
  <desc>A test program to export an SVG from p5.js graphics.</desc>
  <g id="someSquares">
    <rect x="100" y="250" width="50" height="50"/>
    <rect x="75" y="225" width="50" height="50"/>
    <rect x="50" y="50" width="50" height="200"/>
    <rect x="50" y="200" width="100" height="100"/>
    <rect x="25" y="325" width="100" height="50"/>
    <rect x="75" y="350" width="100" height="50"/>
    </g>
  <g id="someCircles">
    <circle cx="200" cy="250" r="25"/>
    <circle cx="225" cy="275" r="25"/>
    <circle cx="200" cy="250" r="50"/>
    <ellipse cx="125" cy="150" rx="75" ry="50"/>
    <ellipse cx="225" cy="375" rx="50" ry="25"/>
    <ellipse cx="175" cy="350" rx="50" ry="25"/>
    </g>
  <g id="someRectsAndRoundedRects">
    <rect x="300" y="25" width="75" height="50" rx="15" ry="15"/>
    <rect x="375" y="25" width="75" height="50"/>
    <rect x="300" y="100" width="75" height="75" rx="15" ry="15" style="stroke:blue;"/>
    <rect x="375" y="100" width="75" height="75" style="stroke:blue;"/>
    <path d="M 475,25 H 545 C 550.5192,25 555,29.4808 555,35 V 105 C 555,116.0383 546.0383,125 535,125 H 515 C 492.9234,125 475,107.0766 475,85 V 25 C 475,25 475,25 475,25 Z" style="stroke:red;"/>
    <path d="M 495,40 H 530 C 535.5192,40 540,44.4808 540,50 V 90 C 540,90 540,90 540,90 H 515 C 501.2021,90 490,78.7979 490,65 V 45 C 490,42.2404 492.2404,40 495,40 Z" style="stroke:red;"/>
    </g>
  <g id="someCircularArcs">
    <path d="M 429.7166 296.2809 A 55 55 0 0 1 345 250"/>
    <path d="M 350 250 A 50 50 0 1 1 427.0151 292.0735"/>
    <path d="M 355 250 A 45 45 0 1 1 424.3136 287.8662 L 424.3136 287.8662 Z"/>
    <path d="M 360 250 A 40 40 0 1 1 421.6121 283.6588 L 421.6121 283.6588 L 400 250 Z"/>
    <path d="M 422.6798 294.5604 A 50 50 0 0 1 350.2498 254.9917 L 350.2498 254.9917 Z"/>
    <path d="M 435 250 A 25 25 0 0 1 423.5076 271.0368 L 423.5076 271.0368 L 410 250 Z"/>
    </g>
  <g id="someEllipticalArcs">
    <path d="M 540.8036 282.3997 A 55 35 0 0 1 465 250"/>
    <path d="M 470 250 A 50 30 0 1 1 537.9750 277.9944"/>
    <path d="M 475 250 A 45 25 0 1 1 535.1192 273.5467 L 535.1192 273.5467 Z"/>
    <path d="M 480 250 A 40 20 0 1 1 532.2272 269.0427 L 532.2272 269.0427 L 520 250 Z"/>
    <path d="M 534.6033 278.6919 A 50 30 0 0 1 470.6848 254.9480 L 470.6848 254.9480 Z"/>
    <path d="M 555 250 A 25 10 0 0 1 536.2191 259.6856 L 536.2191 259.6856 L 530 250 Z"/>
    </g>
  <g id="someSimpleCurves">
    <path d="M 95,20 C 20,10 100,90 25,80"/>
    <path d="M 73,24 C 197.6667,88.1667 179.3333,-14.1667 73,61"/>
    </g>
  <g id="someTransforms">
    <g>
      <g transform="translate(560, 575)">
        <rect x="-30" y="-20" width="60" height="40"/>
      </g>
    </g>
    <g>
      <g transform="translate(534, 591)">
        <g transform="rotate(20)">
          <rect x="-30" y="-20" width="60" height="40"/>
        </g>
      </g>
    </g>
    <g>
      <g transform="translate(553, 622)">
        <g transform="skewX(-20)">
          <rect x="-30" y="-20" width="60" height="40"/>
        </g>
      </g>
    </g>
    <g>
      <g transform="translate(553, 622)">
        <g transform="skewX(-20)">
          <rect x="-30" y="-20" width="60" height="40"/>
        </g>
      </g>
    </g>
    <g>
      <g transform="translate(539, 643)">
        <g transform="skewY(20)">
          <rect x="-30" y="-20" width="60" height="40"/>
        </g>
      </g>
    </g>
    <g>
      <g transform="translate(542, 668)">
        <g transform="scale(0.666600, 1)">
          <rect x="-30" y="-20" width="60" height="40"/>
        </g>
      </g>
    </g>
    <g>
      <g transform="translate(542, 692)">
        <g transform="rotate(20)">
          <g transform="skewX(-20)">
            <rect x="-30" y="-20" width="60" height="40"/>
            <line x1="-30" y1="-20" x2="30" y2="20"/>
          </g>
        </g>
      </g>
    </g>
    </g>
  <g id="someOtherShapes">
    <circle cx="300" cy="255" r="0.2500"/>
    <circle cx="300" cy="255" r="5"/>
    <line x1="260" y1="290" x2="285" y2="210"/>
    <polygon points="300,225 325,275 275,275"/>
    <polygon points="275,200 325,200 350,300 250,300"/>
    </g>
  <g id="simplePolylinesAndPolygons">
    <polyline points="70,530 130,530 130,550 90,550 90,570 130,570 130,590 70,590"/>
    <polygon points="70,610 130,610 130,630 90,630 90,650 130,650 130,670 70,670"/>
    </g>
  <g id="complexPolylinesAndPolygons">
    <path d="M 300,340 Q 360,340 330,370 Q 300,400 360,400 L 360,330 L 300,330"/>
    <path d="M 300,420 Q 360,420 330,450 Q 300,480 360,480 L 360,410 L 300,410 Z"/>
    <path d="M 430,320 C 480,300 480,375 430,375 C 450,380 460,325 430,320"/>
    <path d="M 400,420 C 400,420 410,400 420,420 C 420,420 430,440 440,420 C 440,420 450,400 460,420 L 460,460 L 400,460 L 400,420"/>
    <path d="M 530,470 C 525,425 600,450 550,500 C 550,540 575,540 600,520"/>
    <path d="M 530,370 C 525,325 600,350 550,400 C 520,430 575,440 600,420"/>
    <path d="M 275,500 L 280,500 C 300,500 310,530 325,530 C 340,530 350,500 370,500 L 375,500 L 375,540 L 275,540 Z"/>
    <path d="M 275,550 L 375,550 L 375,590 L 350,595 Q 325,540 300,595 L 300,595 L 275,590 Z"/>
    <polygon points="245,560 224.1481,566.4705 238.9711,582.5000 217.6777,577.6777 222.5000,598.9711 206.4705,584.1481 200,605 193.5295,584.1481 177.5000,598.9711 182.3223,577.6777 161.0289,582.5000 175.8519,566.4705 155,560 175.8519,553.5295 161.0289,537.5000 182.3223,542.3223 177.5000,521.0289 193.5295,535.8519 200,515 206.4705,535.8519 222.5000,521.0289 217.6777,542.3223 238.9711,537.5000 224.1481,553.5295"/>
    <path d="M 233.8074,669.0587 C 234.6680,671.2989 240.4809,679.8850 238.9711,682.5000 C 237.4614,685.1150 227.4939,682.0035 224.7487,684.7487 C 222.0035,687.4939 225.1150,697.4614 222.5000,698.9711 C 219.8850,700.4809 212.8087,692.8026 209.0587,693.8074 C 205.3087,694.8122 203.0196,705 200,705 C 196.9804,705 194.6913,694.8122 190.9413,693.8074 C 187.1913,692.8026 180.1150,700.4809 177.5000,698.9711 C 174.8850,697.4614 177.9965,687.4939 175.2513,684.7487 C 172.5061,682.0035 162.5386,685.1150 161.0289,682.5000 C 159.5191,679.8850 167.1974,672.8087 166.1926,669.0587 C 165.1878,665.3087 155,663.0196 155,660 C 155,656.9804 165.1878,654.6913 166.1926,650.9413 C 167.1974,647.1913 159.5191,640.1150 161.0289,637.5000 C 162.5386,634.8850 172.5061,637.9965 175.2513,635.2513 C 177.9965,632.5061 174.8850,622.5386 177.5000,621.0289 C 180.1150,619.5191 187.1913,627.1974 190.9413,626.1926 C 194.6913,625.1878 196.9804,615 200,615 C 203.0196,615 205.3087,625.1878 209.0587,626.1926 C 212.8087,627.1974 219.8850,619.5191 222.5000,621.0289 C 225.1150,622.5386 222.0035,632.5061 224.7487,635.2513 C 227.4939,637.9965 237.4614,634.8850 238.9711,637.5000 C 240.4809,640.1150 232.8026,647.1913 233.8074,650.9413 C 234.8122,654.6913 245,656.9804 245,660 C 245,663.0196 234.8122,665.3087 233.8074,669.0587"/>
    <path d="M 355,500"/>
    <path d="M 370,500"/>
    <path d="M 385,500"/>
    <path d="M 400,500 C 406.6667,503.3333 430,510 440,520"/>
    <path d="M 415,500 C 421.6667,503.3333 445,510 455,520 C 465,530 478.3333,550 475,560"/>
    <path d="M 430,500 C 436.6667,503.3333 460,510 470,520 C 480,530 493.3333,550 490,560 C 486.6667,570 458.3333,571.6667 450,580"/>
    </g>
  <g id="multiPointShapeVariants">
    <g id="TRIANGLE_STRIP_0">
      <polygon points="280,675 290,620 300,675"/>
      <polygon points="290,620 310,620 300,675"/>
      <polygon points="300,675 310,620 320,675"/>
      <polygon points="310,620 330,620 320,675"/>
      <polygon points="320,675 330,620 340,675"/>
    </g>
    <g id="TRIANGLES_0">
      <polygon points="280,735 290,680 300,735"/>
      <polygon points="310,680 320,735 330,680"/>
    </g>
    <g id="QUAD_STRIP_0">
      <polygon points="360,620 360,675 380,675 380,620"/>
      <polygon points="380,620 380,675 395,675 395,620"/>
      <polygon points="395,620 395,675 415,675 415,620"/>
    </g>
    <g id="QUADS_0">
      <polygon points="360,680 360,735 380,735 380,680"/>
      <polygon points="395,680 395,735 415,735 415,680"/>
    </g>
    <g id="TRIANGLE_FAN_0">
      <polygon points="467,650 467,615 502,650"/>
      <polygon points="467,650 502,650 467,685"/>
      <polygon points="467,650 467,685 432,650"/>
      <polygon points="467,650 432,650 467,615"/>
    </g>
    <g id="POINTS_0">
      <circle cx="497" cy="720" r="0.2500"/>
      <circle cx="496.8357" cy="723.1359" r="0.2500"/>
      <circle cx="496.3444" cy="726.2374" r="0.2500"/>
      <circle cx="495.5317" cy="729.2705" r="0.2500"/>
      <circle cx="494.4064" cy="732.2021" r="0.2500"/>
      <circle cx="492.9808" cy="735" r="0.2500"/>
      <circle cx="491.2705" cy="737.6336" r="0.2500"/>
      <circle cx="489.2943" cy="740.0739" r="0.2500"/>
      <circle cx="487.0739" cy="742.2943" r="0.2500"/>
      <circle cx="484.6336" cy="744.2705" r="0.2500"/>
      <circle cx="482" cy="745.9808" r="0.2500"/>
      <circle cx="479.2021" cy="747.4064" r="0.2500"/>
      <circle cx="476.2705" cy="748.5317" r="0.2500"/>
      <circle cx="473.2374" cy="749.3444" r="0.2500"/>
      <circle cx="470.1359" cy="749.8357" r="0.2500"/>
      <circle cx="467" cy="750" r="0.2500"/>
      <circle cx="463.8641" cy="749.8357" r="0.2500"/>
      <circle cx="460.7626" cy="749.3444" r="0.2500"/>
      <circle cx="457.7295" cy="748.5317" r="0.2500"/>
      <circle cx="454.7979" cy="747.4064" r="0.2500"/>
      <circle cx="452" cy="745.9808" r="0.2500"/>
      <circle cx="449.3664" cy="744.2705" r="0.2500"/>
      <circle cx="446.9261" cy="742.2943" r="0.2500"/>
      <circle cx="444.7057" cy="740.0739" r="0.2500"/>
      <circle cx="442.7295" cy="737.6336" r="0.2500"/>
      <circle cx="441.0192" cy="735" r="0.2500"/>
      <circle cx="439.5936" cy="732.2021" r="0.2500"/>
      <circle cx="438.4683" cy="729.2705" r="0.2500"/>
      <circle cx="437.6556" cy="726.2374" r="0.2500"/>
      <circle cx="437.1643" cy="723.1359" r="0.2500"/>
      <circle cx="437" cy="720" r="0.2500"/>
      <circle cx="437.1643" cy="716.8641" r="0.2500"/>
      <circle cx="437.6556" cy="713.7626" r="0.2500"/>
      <circle cx="438.4683" cy="710.7295" r="0.2500"/>
      <circle cx="439.5936" cy="707.7979" r="0.2500"/>
      <circle cx="441.0192" cy="705" r="0.2500"/>
      <circle cx="442.7295" cy="702.3664" r="0.2500"/>
      <circle cx="444.7057" cy="699.9261" r="0.2500"/>
      <circle cx="446.9261" cy="697.7057" r="0.2500"/>
      <circle cx="449.3664" cy="695.7295" r="0.2500"/>
      <circle cx="452" cy="694.0192" r="0.2500"/>
      <circle cx="454.7979" cy="692.5936" r="0.2500"/>
      <circle cx="457.7295" cy="691.4683" r="0.2500"/>
      <circle cx="460.7626" cy="690.6556" r="0.2500"/>
      <circle cx="463.8641" cy="690.1643" r="0.2500"/>
      <circle cx="467" cy="690" r="0.2500"/>
      <circle cx="470.1359" cy="690.1643" r="0.2500"/>
      <circle cx="473.2374" cy="690.6556" r="0.2500"/>
      <circle cx="476.2705" cy="691.4683" r="0.2500"/>
      <circle cx="479.2021" cy="692.5936" r="0.2500"/>
      <circle cx="482" cy="694.0192" r="0.2500"/>
      <circle cx="484.6336" cy="695.7295" r="0.2500"/>
      <circle cx="487.0739" cy="697.7057" r="0.2500"/>
      <circle cx="489.2943" cy="699.9261" r="0.2500"/>
      <circle cx="491.2705" cy="702.3664" r="0.2500"/>
      <circle cx="492.9808" cy="705" r="0.2500"/>
      <circle cx="494.4064" cy="707.7979" r="0.2500"/>
      <circle cx="495.5317" cy="710.7295" r="0.2500"/>
      <circle cx="496.3444" cy="713.7626" r="0.2500"/>
      <circle cx="496.8357" cy="716.8641" r="0.2500"/>
    </g>
    <g id="LINES_0">
      <line x1="492" y1="720" x2="491.6922" y2="723.9109"/>
      <line x1="490.7764" y1="727.7254" x2="489.2752" y2="731.3498"/>
      <line x1="487.2254" y1="734.6946" x2="484.6777" y2="737.6777"/>
      <line x1="481.6946" y1="740.2254" x2="478.3498" y2="742.2752"/>
      <line x1="474.7254" y1="743.7764" x2="470.9109" y2="744.6922"/>
      <line x1="467" y1="745" x2="463.0891" y2="744.6922"/>
      <line x1="459.2746" y1="743.7764" x2="455.6502" y2="742.2752"/>
      <line x1="452.3054" y1="740.2254" x2="449.3223" y2="737.6777"/>
      <line x1="446.7746" y1="734.6946" x2="444.7248" y2="731.3498"/>
      <line x1="443.2236" y1="727.7254" x2="442.3078" y2="723.9109"/>
      <line x1="442" y1="720" x2="442.3078" y2="716.0891"/>
      <line x1="443.2236" y1="712.2746" x2="444.7248" y2="708.6502"/>
      <line x1="446.7746" y1="705.3054" x2="449.3223" y2="702.3223"/>
      <line x1="452.3054" y1="699.7746" x2="455.6502" y2="697.7248"/>
      <line x1="459.2746" y1="696.2236" x2="463.0891" y2="695.3078"/>
      <line x1="467" y1="695" x2="470.9109" y2="695.3078"/>
      <line x1="474.7254" y1="696.2236" x2="478.3498" y2="697.7248"/>
      <line x1="481.6946" y1="699.7746" x2="484.6777" y2="702.3223"/>
      <line x1="487.2254" y1="705.3054" x2="489.2752" y2="708.6502"/>
      <line x1="490.7764" y1="712.2746" x2="491.6922" y2="716.0891"/>
    </g>
    </g>
  <g id="someText">
    <text x="50" y="770" font-family="Times" font-size="40">Hello World</text>
    <text x="50" y="475" font-family="Times" font-size="30" text-anchor="middle">abc</text>
    <text x="50" y="500" font-family="Times" font-size="30" text-anchor="end">abc</text>
    <text x="50" y="450" font-family="Times" font-size="30">bas</text>
    <text x="100" y="450" font-family="Times" font-size="30">top</text>
    <text x="100" y="450" font-family="Times" font-size="30">cen</text>
    <text x="100" y="442.5000" font-family="Times" font-size="30">bot</text>
    <line x1="0" y1="450" x2="150" y2="450"/>
    </g>
</g>
</svg>