<svg width="16" height="16" viewBox="0 0 16 16" fill="none" xmlns="http://www.w3.org/2000/svg">
    <path d="M2 3C2 2.44772 2.44772 2 3 2H13C13.5523 2 14 2.44772 14 3C14 3.55228 13.5523 4 13 4H3C2.44772 4 2 3.55228 2 3Z" fill="white"/>
    <path d="M4 8C4 7.44772 4.44772 7 5 7H11C11.5523 7 12 7.44772 12 8C12 8.55229 11.5523 9 11 9H5C4.44772 9 4 8.55229 4 8Z" fill="white"/>
    <path d="M7 12C6.44772 12 6 12.4477 6 13C6 13.5523 6.44772 14 7 14H9C9.55229 14 10 13.5523 10 13C10 12.4477 9.55229 12 9 12H7Z" fill="white"/>
</svg>
