<svg width="16" height="16" viewBox="0 0 16 16" fill="none" xmlns="http://www.w3.org/2000/svg">
<path d="M1.86192 8.50711C1.83669 8.54989 1.80836 8.59063 1.77724 8.62901C1.70543 8.71796 1.62047 8.79194 1.52694 8.84982C1.39401 8.9324 1.24029 8.98466 1.07543 8.99695C0.962566 9.0056 0.847622 8.99518 0.735645 8.96444C0.620303 8.93291 0.513274 8.88124 0.418573 8.81346C0.285664 8.71872 0.182186 8.59623 0.111338 8.45877C-0.0158615 8.21198 -0.0378856 7.91693 0.0637618 7.64762C0.0873747 7.58487 0.117116 7.52512 0.152256 7.4691L0.159856 7.45679C0.168709 7.44258 0.180599 7.42377 0.195471 7.40083C0.225187 7.35499 0.266968 7.29242 0.320355 7.21698C0.426773 7.06661 0.581293 6.86228 0.780443 6.63598C1.17156 6.19152 1.7704 5.62145 2.55269 5.2303C3.35318 4.83006 4.35861 4.61359 5.4863 4.92684C6.59532 5.2349 7.6972 6.02056 8.78078 7.37503C9.6972 8.52056 10.4703 8.9849 11.0488 9.14559C11.6086 9.30109 12.1032 9.20506 12.5527 8.9803C13.0204 8.74645 13.4216 8.37902 13.7179 8.04223C13.8625 7.87791 13.9736 7.73067 14.0469 7.62714C14.0834 7.57562 14.11 7.53565 14.1261 7.51069C14.1338 7.49884 14.1391 7.49043 14.142 7.48585C14.1497 7.4729 14.1578 7.46014 14.1661 7.44759C14.3349 7.1923 14.6031 7.0382 14.8882 7.00594C15.0146 6.99163 15.1443 7.00128 15.2702 7.03669C15.3935 7.0712 15.5071 7.12874 15.6062 7.20437C15.8348 7.37887 15.986 7.64969 15.9991 7.95627C16.0024 8.03068 15.9974 8.10578 15.9838 8.18014C15.9599 8.31143 15.9103 8.43378 15.8405 8.54181L15.84 8.54267C15.8311 8.55688 15.8192 8.57569 15.8043 8.59863C15.7746 8.64447 15.7328 8.70704 15.6795 8.78248C15.573 8.93285 15.4185 9.13717 15.2194 9.36348C14.8282 9.80794 14.2294 10.378 13.4471 10.7692C12.6466 11.1694 11.6412 11.3859 10.5135 11.0726C9.4045 10.7646 8.30261 9.9789 7.21904 8.62442C6.30261 7.47889 5.5295 7.01456 4.95101 6.85387C4.39121 6.69837 3.89663 6.7944 3.44712 7.01916C2.97941 7.25301 2.57825 7.62044 2.28187 7.95723C2.13727 8.12155 2.02617 8.26879 1.9529 8.37232C1.91644 8.42383 1.88986 8.46381 1.87368 8.48877C1.86879 8.49631 1.86487 8.50245 1.86192 8.50711Z" fill="white"/>
</svg>
