<svg width="16" height="16" viewBox="0 0 16 16" fill="none" xmlns="http://www.w3.org/2000/svg">
<path fill-rule="evenodd" clip-rule="evenodd" d="M7.17154 4.6567L9.00001 2.82834L8.29284 2.12117C7.90232 1.73064 7.90232 1.09748 8.29284 0.706956C8.68336 0.316431 9.31653 0.316431 9.70705 0.706956L15.3639 6.36381C15.7544 6.75433 15.7544 7.3875 15.3639 7.77802C14.9734 8.16855 14.3402 8.16855 13.9497 7.77802L13.2427 7.07098L11.4142 8.89936V10.8993C11.4142 11.4298 11.2034 11.9385 10.8284 12.3136L8.99995 14.142L6.17152 11.3136L3.34309 14.142C2.95257 14.5325 2.3194 14.5325 1.92888 14.142C1.53836 13.7515 1.53836 13.1183 1.92888 12.7278L4.75731 9.89934L1.92888 7.07092L3.75731 5.24249C4.13238 4.86742 4.64109 4.6567 5.17152 4.6567L7.17154 4.6567ZM11.8284 5.65677L10.4142 4.24255L8.58571 6.07096C8.21064 6.44601 7.70195 6.6567 7.17154 6.6567H5.17152L4.75731 7.07092L8.99995 11.3136L9.41416 10.8993V8.89936C9.41416 8.36891 9.62489 7.86018 9.99999 7.48511L11.8284 5.65677Z" fill="white"/>
</svg>
