<svg width="16" height="16" viewBox="0 0 16 16" fill="none" xmlns="http://www.w3.org/2000/svg">
    <path fill-rule="evenodd" clip-rule="evenodd" d="M8 0C11.3137 0 14 2.68629 14 6V10C14 13.3137 11.3137 16 8 16C4.68629 16 2 13.3137 2 10V6C2 2.68629 4.68629 0 8 0ZM8.00002 4.00002C7.44774 4.00002 7.00002 4.44773 7.00002 5.00002V7.00002H5.00002C4.44774 7.00002 4.00002 7.44773 4.00002 8.00002C4.00002 8.5523 4.44774 9.00002 5.00002 9.00002H7.00002V11C7.00002 11.5523 7.44774 12 8.00002 12C8.55231 12 9.00002 11.5523 9.00002 11V9.00002H11C11.5523 9.00002 12 8.55231 12 8.00002C12 7.44773 11.5523 7.00002 11 7.00002H9.00002V5.00002C9.00002 4.44773 8.55231 4.00002 8.00002 4.00002Z" fill="#999999"/>
</svg>
