<svg width="16" height="16" viewBox="0 0 16 16" fill="none" xmlns="http://www.w3.org/2000/svg">
    <path fill-rule="evenodd" clip-rule="evenodd" d="M7.2928 0.706956L0.707012 7.29274C0.316488 7.68327 0.316489 8.31643 0.707013 8.70696L7.2928 15.2927C7.68333 15.6833 8.31649 15.6833 8.70701 15.2927L15.2928 8.70695C15.6833 8.31643 15.6833 7.68327 15.2928 7.29274L8.70701 0.706955C8.31649 0.316431 7.68332 0.316432 7.2928 0.706956ZM8 3.99994C7.44772 3.99994 7 4.44766 7 4.99994V6.99994H5C4.44772 6.99994 4 7.44766 4 7.99994C4 8.55223 4.44772 8.99994 5 8.99994H7V10.9999C7 11.5522 7.44772 11.9999 8 11.9999C8.55228 11.9999 9 11.5522 9 10.9999V8.99994H11C11.5523 8.99994 12 8.55223 12 7.99994C12 7.44766 11.5523 6.99994 11 6.99994H9V4.99994C9 4.44766 8.55228 3.99994 8 3.99994Z" fill="#999999"/>
</svg>
