<svg width="16" height="16" viewBox="0 0 16 16" fill="none" xmlns="http://www.w3.org/2000/svg">
    <path fill-rule="evenodd" clip-rule="evenodd" d="M7.14105 0.355789L0.355788 7.14105C-0.118597 7.61544 -0.118596 8.38456 0.355789 8.85895L7.14105 15.6442C7.61544 16.1186 8.38456 16.1186 8.85895 15.6442L15.6442 8.85895C16.1186 8.38456 16.1186 7.61544 15.6442 7.14105L8.85895 0.355788C8.38456 -0.118597 7.61544 -0.118596 7.14105 0.355789ZM5.57041 5.41069L5.57041 10.5891C5.57041 11.5593 6.6517 12.138 7.45896 11.5998L11.3428 9.01061C12.064 8.52979 12.064 7.46998 11.3428 6.98916L7.45896 4.39997C6.6517 3.8618 5.57041 4.44049 5.57041 5.41069Z" fill="#808080"/>
</svg>
