<svg width="16" height="16" viewBox="0 0 16 16" fill="none" xmlns="http://www.w3.org/2000/svg">
    <path d="M8 2C7.44772 2 7 2.44772 7 3C7 3.55228 7.44772 4 8 4C8.55229 4 9 3.55228 9 3C9 2.44772 8.55229 2 8 2Z" fill="#999999"/>
    <path d="M7 8C7 7.44772 7.44772 7 8 7C8.55229 7 9 7.44772 9 8C9 8.55229 8.55229 9 8 9C7.44772 9 7 8.55228 7 8Z" fill="#999999"/>
    <path d="M7 13C7 12.4477 7.44772 12 8 12C8.55229 12 9 12.4477 9 13C9 13.5523 8.55229 14 8 14C7.44772 14 7 13.5523 7 13Z" fill="#999999"/>
</svg>
