<svg width="16" height="16" viewBox="0 0 16 16" fill="none" xmlns="http://www.w3.org/2000/svg">
    <path fill-rule="evenodd" clip-rule="evenodd" d="M8.85895 0.355789L15.6442 7.14105C16.1186 7.61544 16.1186 8.38456 15.6442 8.85895L8.85895 15.6442C8.38456 16.1186 7.61544 16.1186 7.14105 15.6442L0.355787 8.85895C-0.118597 8.38456 -0.118595 7.61544 0.355788 7.14105L7.14105 0.355788C7.61544 -0.118597 8.38456 -0.118596 8.85895 0.355789ZM10.4296 5.41069L10.4296 10.5891C10.4296 11.5593 9.3483 12.138 8.54104 11.5998L4.65725 9.01061C3.93602 8.52979 3.93602 7.46998 4.65725 6.98916L8.54104 4.39997C9.3483 3.8618 10.4296 4.44049 10.4296 5.41069Z" fill="#808080"/>
</svg>
