<svg width="16" height="16" viewBox="0 0 16 16" fill="none" xmlns="http://www.w3.org/2000/svg">
    <path d="M5.22951 5.22951C5.53553 4.9235 6.03169 4.9235 6.33771 5.22951L10.7705 9.66229C11.0765 9.96831 11.0765 10.4645 10.7705 10.7705C10.4645 11.0765 9.96831 11.0765 9.66229 10.7705L5.22952 6.33771C4.9235 6.03169 4.9235 5.53553 5.22951 5.22951Z" fill="white"/>
    <path d="M10.7705 5.22951C11.0765 5.53553 11.0765 6.03169 10.7705 6.33771L6.33771 10.7705C6.03169 11.0765 5.53553 11.0765 5.22951 10.7705C4.9235 10.4645 4.9235 9.96831 5.22951 9.66229L9.66229 5.22952C9.96831 4.9235 10.4645 4.9235 10.7705 5.22951Z" fill="white"/>
</svg>