<svg width="16" height="16" viewBox="0 0 16 16" fill="none" xmlns="http://www.w3.org/2000/svg">
<g opacity="0.5">
<path d="M12.6749 3.32506C13.1084 3.75848 13.1084 4.46118 12.6749 4.89459L4.89459 12.6749C4.46118 13.1084 3.75848 13.1084 3.32506 12.6749C2.89165 12.2415 2.89165 11.5388 3.32506 11.1054L11.1054 3.32506C11.5388 2.89165 12.2415 2.89165 12.6749 3.32506Z" fill="white"/>
<path d="M12.6749 12.6749C12.2415 13.1084 11.5388 13.1084 11.1054 12.6749L3.32506 4.89459C2.89165 4.46118 2.89165 3.75847 3.32506 3.32506C3.75848 2.89165 4.46118 2.89165 4.8946 3.32506L12.6749 11.1054C13.1084 11.5388 13.1084 12.2415 12.6749 12.6749Z" fill="white"/>
</g>
</svg>
