<svg width="16" height="16" viewBox="0 0 16 16" fill="none" xmlns="http://www.w3.org/2000/svg">
<path fill-rule="evenodd" clip-rule="evenodd" d="M15.7071 0.292892C15.9926 0.578351 16.0784 1.00746 15.9247 1.38075L10.16 15.3807C10.0067 15.753 9.64505 15.9971 9.24244 16C8.83982 16.0028 8.47475 15.764 8.31615 15.3939L6.00313 9.99687L0.606081 7.68385C0.23601 7.52525 -0.00285001 7.16018 2.56801e-05 6.75756C0.00290137 6.35495 0.246952 5.99332 0.61925 5.84003L14.6193 0.0753206C14.9925 -0.0783884 15.4216 0.00743234 15.7071 0.292892ZM7.95055 9.46367L9.21686 12.4184L12.1716 5.24264L7.95055 9.46367ZM10.7574 3.82843L3.58162 6.78314L6.53633 8.04945L10.7574 3.82843Z" fill="#5B5B5B"/>
</svg>
