<svg width="16" height="16" viewBox="0 0 16 16" fill="none" xmlns="http://www.w3.org/2000/svg">
<path fill-rule="evenodd" clip-rule="evenodd" d="M1 3C1 1.89543 1.89543 1 3 1H11.5858C12.1162 1 12.6249 1.21071 13 1.58579L14.4142 3C14.7893 3.37507 15 3.88378 15 4.41421V13C15 14.1046 14.1046 15 13 15H3C1.89543 15 1 14.1046 1 13V3ZM6 13H10V9H6V13ZM12 13V9C12 7.89543 11.1046 7 10 7H6C4.89543 7 4 7.89543 4 9V13H3V3H5V4C5 4.55228 5.44772 5 6 5H10C10.5523 5 11 4.55228 11 4V3H11.5858L13 4.41421V13H12Z" fill="#5B5B5B"/>
</svg>
