<svg width="16" height="16" viewBox="0 0 16 16" fill="none" xmlns="http://www.w3.org/2000/svg">
    <path fill-rule="evenodd" clip-rule="evenodd" d="M9.05882 3C11.2355 3 13 4.76452 13 6.94118C13 9.11783 11.2355 10.8824 9.05882 10.8824C6.88217 10.8824 5.11765 9.11783 5.11765 6.94118C5.11765 4.76452 6.88217 3 9.05882 3ZM15 6.94118C15 3.65996 12.34 1 9.05882 1C5.7776 1 3.11765 3.65996 3.11765 6.94118C3.11765 8.22074 3.52215 9.40582 4.21026 10.3755L1.29289 13.2929C0.902369 13.6834 0.902369 14.3166 1.29289 14.7071C1.68342 15.0976 2.31658 15.0976 2.70711 14.7071L5.62448 11.7897C6.59418 12.4778 7.77926 12.8824 9.05882 12.8824C12.34 12.8824 15 10.2224 15 6.94118Z" fill="white"/>
</svg>
