<svg width="12" height="12" viewBox="0 0 12 12" fill="none" xmlns="http://www.w3.org/2000/svg">
<path d="M2 1C2 1.55228 1.55228 2 1 2C0.447715 2 0 1.55228 0 1C0 0.447715 0.447715 0 1 0C1.55228 0 2 0.447715 2 1Z" fill="#808080"/>
<path d="M2 6C2 6.55228 1.55228 7 1 7C0.447715 7 0 6.55228 0 6C0 5.44772 0.447715 5 1 5C1.55228 5 2 5.44772 2 6Z" fill="#808080"/>
<path d="M2 11C2 11.5523 1.55228 12 1 12C0.447715 12 0 11.5523 0 11C0 10.4477 0.447715 10 1 10C1.55228 10 2 10.4477 2 11Z" fill="#808080"/>
<path d="M4 1C4 0.447715 4.44772 0 5 0H11C11.5523 0 12 0.447715 12 1C12 1.55228 11.5523 2 11 2H5C4.44772 2 4 1.55228 4 1Z" fill="#808080"/>
<path d="M4 6C4 5.44772 4.44772 5 5 5H11C11.5523 5 12 5.44772 12 6C12 6.55228 11.5523 7 11 7H5C4.44772 7 4 6.55228 4 6Z" fill="#808080"/>
<path d="M4 11C4 10.4477 4.44772 10 5 10H11C11.5523 10 12 10.4477 12 11C12 11.5523 11.5523 12 11 12H5C4.44772 12 4 11.5523 4 11Z" fill="#808080"/>
</svg>
