<svg width="16" height="16" viewBox="0 0 16 16" fill="none" xmlns="http://www.w3.org/2000/svg">
<g id="Icon-16px-2str / Settings">
<g id="Vector">
<path fill-rule="evenodd" clip-rule="evenodd" d="M15 5C15.5523 5 16 4.55228 16 4C16 3.44772 15.5523 3 15 3H13C12.9435 3 12.8881 3.00469 12.8341 3.0137C12.4262 1.84136 11.3113 1 10 1C8.69378 1 7.58254 1.83481 7.17071 3L1 3C0.447715 3 2.41411e-08 3.44771 0 4C-2.41411e-08 4.55228 0.447715 5 1 5L7.17071 5C7.58254 6.16519 8.69378 7 10 7C11.3113 7 12.4262 6.15864 12.8341 4.9863C12.8881 4.99531 12.9435 5 13 5H15ZM9 4C9 3.44772 9.44772 3 10 3C10.5523 3 11 3.44772 11 4C11 4.55228 10.5523 5 10 5C9.44772 5 9 4.55228 9 4Z" fill="white"/>
<path fill-rule="evenodd" clip-rule="evenodd" d="M15 13C15.5523 13 16 12.5523 16 12C16 11.4477 15.5523 11 15 11L8.82929 11C8.41746 9.83481 7.30622 9 6 9C4.69378 9 3.58254 9.83481 3.17071 11H1C0.447715 11 2.41411e-08 11.4477 0 12C-2.41411e-08 12.5523 0.447715 13 1 13H3.17071C3.58254 14.1652 4.69378 15 6 15C7.30622 15 8.41746 14.1652 8.82929 13L15 13ZM5 12C5 11.4477 5.44772 11 6 11C6.55228 11 7 11.4477 7 12C7 12.5523 6.55228 13 6 13C5.44772 13 5 12.5523 5 12Z" fill="white"/>
</g>
</g>
</svg>
