<svg width="16" height="16" viewBox="0 0 16 16" fill="none" xmlns="http://www.w3.org/2000/svg">
<path fill-rule="evenodd" clip-rule="evenodd" d="M15 8C15 11.866 11.866 15 8 15C4.13401 15 1 11.866 1 8C1 4.13401 4.13401 1 8 1C11.866 1 15 4.13401 15 8ZM11.5355 10.1213C11.9261 10.5118 11.9261 11.145 11.5355 11.5355C11.145 11.9261 10.5118 11.9261 10.1213 11.5355L7.99999 9.4142L5.87872 11.5355C5.48819 11.926 4.85503 11.926 4.4645 11.5355C4.07398 11.145 4.07398 10.5118 4.4645 10.1213L6.58577 7.99999L4.46447 5.87868C4.07394 5.48816 4.07394 4.85499 4.46447 4.46447C4.85499 4.07394 5.48816 4.07394 5.87868 4.46447L7.99999 6.58578L10.1214 4.46441C10.5119 4.07388 11.145 4.07388 11.5356 4.46441C11.9261 4.85493 11.9261 5.4881 11.5356 5.87862L9.4142 7.99999L11.5355 10.1213Z" fill="#F73F6B"/>
</svg>
