<svg width="16" height="16" viewBox="0 0 16 16" fill="none" xmlns="http://www.w3.org/2000/svg">
<path fill-rule="evenodd" clip-rule="evenodd" d="M8 15C11.866 15 15 11.866 15 8C15 4.13401 11.866 1 8 1C4.13401 1 1 4.13401 1 8C1 11.866 4.13401 15 8 15ZM10.7782 4.82843C11.1687 4.4379 11.8019 4.4379 12.1924 4.82843C12.5829 5.21895 12.5829 5.85212 12.1924 6.24264L7.24268 11.1924C6.85215 11.5829 6.21895 11.5829 5.82843 11.1924L3.70711 9.0711C3.31658 8.68058 3.31658 8.04741 3.70711 7.65689C4.09763 7.26637 4.7308 7.26637 5.12132 7.65689L6.53553 9.0711L10.7782 4.82843Z" fill="#25BE61"/>
</svg>
