<svg width="16" height="16" viewBox="0 0 16 16" fill="none" xmlns="http://www.w3.org/2000/svg">
<path fill-rule="evenodd" clip-rule="evenodd" d="M14.0368 15C14.7753 15 15.2382 14.1695 14.8719 13.5021L8.83504 1.50447C8.46583 0.831845 7.53417 0.831845 7.16496 1.50446L1.12814 13.5021C0.761759 14.1695 1.22472 15 1.96318 15H14.0368ZM7 5.98921C7 5.43624 7.46883 4.98801 8 4.98801C8.53117 4.98801 9 5.44703 9 6V9C9 9.55297 8.53117 9.99401 8 9.99401C7.46883 9.99401 7 9.55297 7 9V5.98921ZM7 11.9964C7 11.4434 7.46883 10.9952 8 10.9952C8.53117 10.9952 9 11.4434 9 11.9964C9 12.5494 8.53117 12.9976 8 12.9976C7.46883 12.9976 7 12.5494 7 11.9964Z" fill="#F73F6B"/>
</svg>
