<svg width="16" height="16" viewBox="360 12 16 16" fill="none" xmlns="http://www.w3.org/2000/svg">
    <path d="M372.675 15.3251C373.108 15.7585 373.108 16.4612 372.675 16.8946L364.895 24.6749C364.461 25.1084 363.758 25.1084 363.325 24.6749C362.892 24.2415 362.892 23.5388 363.325 23.1054L371.105 15.3251C371.539 14.8916 372.242 14.8916 372.675 15.3251Z" fill="white"/>
    <path d="M372.675 24.6749C372.242 25.1084 371.539 25.1084 371.105 24.6749L363.325 16.8946C362.892 16.4612 362.892 15.7585 363.325 15.3251C363.758 14.8916 364.461 14.8916 364.895 15.3251L372.675 23.1054C373.108 23.5388 373.108 24.2415 372.675 24.6749Z" fill="white"/>
</svg>
