<svg width="16" height="16" viewBox="0 0 16 16" fill="none" xmlns="http://www.w3.org/2000/svg">
    <path fill-rule="evenodd" clip-rule="evenodd" d="M11 4C14 3.99986 15 6.00004 15 9.00003C15 12 15 13 13 13C11.6572 13 10.6901 11.8261 10.2168 11.2517C10.1261 11.1417 10.0536 11.0536 10 11L6 11C5.94641 11.0536 5.87388 11.1417 5.78322 11.2517C5.30994 11.8261 4.34279 13 3 13C1 13 1 12 1 9.00004C1 6.00006 2 4 5 4.00002C8 4.00003 11 4 11 4ZM13 8C13 9.10457 12.1046 10 11 10C9.89543 10 9 9.10457 9 8C9 6.89543 9.89543 6 11 6C12.1046 6 13 6.89543 13 8ZM5.5 7.5V6H4.5V7.5H3V8.5H4.5V10H5.5V8.5H7V7.5H5.5Z" fill="white"/>
</svg>
