<svg width="16" height="16" viewBox="0 0 16 16" fill="none" xmlns="http://www.w3.org/2000/svg">
<g id="Icon-16px-2str / Help">
<path id="Vector" fill-rule="evenodd" clip-rule="evenodd" d="M8.00025 3.99834C6.99597 3.99834 6.1773 4.65553 5.96576 5.43933C5.82196 5.97212 5.27311 6.28755 4.73988 6.14388C4.20664 6.0002 3.89094 5.45181 4.03474 4.91901C4.49992 3.19548 6.16403 2 8.00025 2C10.2125 2 12.0002 3.72563 12.0002 5.90584C12.0002 7.54657 10.7463 8.34407 10.0636 8.80919C9.21527 9.38711 9.00025 9.60443 9.00025 9.99334C9.00025 10.5452 8.55253 10.9925 8.00025 10.9925C7.44796 10.9925 7.00025 10.5452 7.00025 9.99334C7.00025 8.46443 8.15989 7.68237 8.8346 7.22734C9.29912 6.91406 10.0002 6.54596 10.0002 5.90584C10.0002 4.87543 9.15471 3.99834 8.00025 3.99834ZM8.00025 11.9917C8.55253 11.9917 9.00025 12.439 9.00025 12.9908V13.0008C9.00025 13.5527 8.55253 14 8.00025 14C7.44796 14 7.00025 13.5527 7.00025 13.0008V12.9908C7.00025 12.439 7.44796 11.9917 8.00025 11.9917Z" fill="#585858"/>
</g>
</svg>
