<!-- plotSvg_generative_12345.svg -->
<!-- Generated using p5.plotSvg: -->
<!-- A Plotter-Oriented SVG Exporter for p5.js -->
<!-- Tue Nov 19 2024 04:10:26 GMT-0500 (Eastern Standard Time) -->
<!-- DPI: 96 -->
<svg xmlns="http://www.w3.org/2000/svg" width="6in" height="4in" viewBox="0 0 576 384">
  <style>
    circle, ellipse, line, path, polygon, polyline, rect, quad, text {
      fill: none;
      stroke: black;
      stroke-width: 1;
      stroke-linecap: round;
      stroke-linejoin: round;
      vector-effect: non-scaling-stroke;
    }
  </style>
<g vector-effect="non-scaling-stroke">
  <line x1="67.0016" y1="43.4835" x2="307.8862" y2="233.4425"/>
  <line x1="476.9416" y1="72.9482" x2="286.1058" y2="206.8528"/>
  <line x1="332.2829" y1="279.0760" x2="75.9649" y2="266.8957"/>
  <line x1="502.6450" y1="61.0307" x2="379.9789" y2="179.8024"/>
  <line x1="240.2996" y1="333.1649" x2="244.7425" y2="331.0891"/>
  <line x1="515.4870" y1="242.2888" x2="252.4703" y2="191.9768"/>
  <line x1="189.9810" y1="168.4385" x2="368.7869" y2="86.1093"/>
  <line x1="98.5049" y1="300.3451" x2="201.1681" y2="40.5721"/>
  <line x1="270.7970" y1="128.0035" x2="321.6312" y2="334.0114"/>
  <line x1="64.7265" y1="277.9408" x2="196.8758" y2="137.0528"/>
  <line x1="497.6584" y1="206.3855" x2="365.0744" y2="240.2196"/>
  <line x1="344.8702" y1="87.9358" x2="485.7128" y2="274.1522"/>
  <line x1="268.2165" y1="261.3288" x2="210.4810" y2="257.3266"/>
  <line x1="323.0452" y1="272.3089" x2="261.6138" y2="101.6727"/>
  <line x1="268.1630" y1="244.7966" x2="297.6813" y2="306.4938"/>
  <line x1="238.0511" y1="322.7575" x2="399.6294" y2="82.2850"/>
  <line x1="373.3306" y1="145.9706" x2="222.6709" y2="282.0517"/>
  <line x1="424.6784" y1="92.4977" x2="112.4257" y2="162.5288"/>
  <line x1="460.5924" y1="260.6515" x2="304.5115" y2="114.4992"/>
  <line x1="238.2078" y1="305.6647" x2="432.3844" y2="152.6126"/>
  <line x1="441.1621" y1="251.0586" x2="301.0299" y2="313.5041"/>
  <line x1="348.5111" y1="321.1121" x2="234.5029" y2="279.0134"/>
  <line x1="437.8942" y1="68.0300" x2="342.1189" y2="226.1029"/>
  <line x1="109.3504" y1="216.2123" x2="467.2941" y2="66.6771"/>
  <line x1="184.9836" y1="278.0225" x2="394.2367" y2="154.1009"/>
  <line x1="140.4785" y1="125.0565" x2="463.6868" y2="158.8185"/>
  <line x1="414.8661" y1="258.9116" x2="99.3074" y2="265.0721"/>
  <line x1="445.7390" y1="210.2548" x2="155.9250" y2="315.9208"/>
  <line x1="241.9178" y1="101.3918" x2="370.4204" y2="290.5593"/>
  <line x1="518.3659" y1="39.5358" x2="360.8688" y2="45.1364"/>
  <line x1="219.7557" y1="71.9762" x2="293.1309" y2="318.6740"/>
  <line x1="511.8839" y1="131.9471" x2="214.0935" y2="324.0859"/>
  <line x1="473.7372" y1="95.1964" x2="391.5598" y2="223.4965"/>
  <line x1="251.0083" y1="144.0547" x2="507.9903" y2="275.0592"/>
  <line x1="359.8607" y1="176.6033" x2="278.4934" y2="188.8757"/>
  <line x1="229.7451" y1="147.3437" x2="492.2659" y2="156.0146"/>
  <line x1="110.8647" y1="230.5660" x2="366.2838" y2="176.2296"/>
  <line x1="449.4909" y1="81.6177" x2="117.6427" y2="223.5792"/>
  <line x1="322.3287" y1="234.4726" x2="265.7487" y2="179.5446"/>
  <line x1="322.7328" y1="149.1993" x2="349.9587" y2="76.0489"/>
  <line x1="200.3728" y1="94.9301" x2="324.2714" y2="38.7759"/>
  <line x1="103.1488" y1="306.7297" x2="172.2675" y2="319.5885"/>
  <line x1="100.5575" y1="147.5640" x2="312.7007" y2="40.4477"/>
  <line x1="155.7072" y1="83.3687" x2="412.5383" y2="106.4312"/>
  <line x1="63.5841" y1="140.0185" x2="329.8514" y2="155.0526"/>
  <line x1="370.7672" y1="261.3952" x2="112.1560" y2="68.2793"/>
  <line x1="338.1946" y1="77.3569" x2="238.2034" y2="61.6522"/>
  <line x1="182.9785" y1="275.2066" x2="180.8210" y2="200.1036"/>
  <line x1="204.8714" y1="165.0609" x2="395.6027" y2="266.8768"/>
  <line x1="116.5814" y1="237.5190" x2="513.8496" y2="67.1439"/>
  <line x1="169.1377" y1="156.8312" x2="457.3607" y2="324.7253"/>
  <line x1="249.1068" y1="219.9675" x2="248.6734" y2="106.3084"/>
  <line x1="151.6573" y1="257.5870" x2="395.9543" y2="301.1657"/>
  <line x1="201.4763" y1="167.3058" x2="238.9398" y2="335.5743"/>
  <line x1="126.3345" y1="202.4665" x2="512.7264" y2="261.1343"/>
  <line x1="193.7022" y1="138.0063" x2="373.4118" y2="157.7876"/>
  <line x1="441.6144" y1="198.2264" x2="441.5851" y2="235.5365"/>
  <line x1="401.3872" y1="256.8603" x2="494.8679" y2="180.4628"/>
  <line x1="442.5827" y1="40.6425" x2="370.3045" y2="53.8463"/>
  <line x1="456.2249" y1="72.3776" x2="311.0025" y2="214.7834"/>
  <line x1="462.6655" y1="94.3089" x2="332.2240" y2="271.1064"/>
  <line x1="472.8993" y1="83.7870" x2="140.5254" y2="212.2016"/>
  <line x1="272.9298" y1="141.2388" x2="333.1488" y2="195.7284"/>
  <line x1="376.7851" y1="215.2360" x2="190.4621" y2="145.0382"/>
  <line x1="440.1831" y1="91.8641" x2="391.8498" y2="83.6926"/>
  <line x1="297.2476" y1="152.3908" x2="207.8537" y2="59.8828"/>
  <line x1="142.6735" y1="100.8353" x2="494.1633" y2="126.3480"/>
  <line x1="183.3428" y1="312.6364" x2="427.4569" y2="303.7939"/>
  <line x1="198.5899" y1="87.6217" x2="460.6915" y2="225.4123"/>
  <line x1="485.1174" y1="69.6763" x2="129.0441" y2="80.0987"/>
  <line x1="248.1616" y1="197.9115" x2="188.9019" y2="247.9721"/>
  <line x1="214.1084" y1="298.1332" x2="255.5033" y2="170.5930"/>
  <line x1="226.9586" y1="55.4114" x2="269.6280" y2="147.0826"/>
  <line x1="216.6438" y1="100.5482" x2="414.9381" y2="300.9414"/>
  <line x1="139.9916" y1="183.2471" x2="213.1685" y2="255.1679"/>
  <line x1="139.9419" y1="311.9813" x2="404.3677" y2="58.0774"/>
  <line x1="440.6119" y1="65.3629" x2="275.3881" y2="214.2208"/>
  <line x1="150.2119" y1="265.4112" x2="264.6271" y2="287.6031"/>
  <line x1="249.4113" y1="220.7219" x2="432.6170" y2="229.2027"/>
  <line x1="490.7535" y1="105.9354" x2="248.8666" y2="55.9895"/>
  <line x1="325.1223" y1="303.1059" x2="191.7509" y2="343.8440"/>
  <line x1="262.4570" y1="52.1700" x2="243.8524" y2="236.7761"/>
  <line x1="189.1182" y1="292.1155" x2="157.1513" y2="196.4436"/>
  <line x1="495.5034" y1="291.2501" x2="487.2663" y2="203.9713"/>
  <line x1="462.7126" y1="167.3701" x2="285.5452" y2="177.2694"/>
  <line x1="453.0641" y1="278.6293" x2="355.4056" y2="227.8524"/>
  <line x1="279.6600" y1="216.3076" x2="358.5253" y2="301.1579"/>
  <line x1="69.4016" y1="207.4801" x2="290.0833" y2="49.9652"/>
  <line x1="372.2554" y1="132.3851" x2="368.6499" y2="174.5142"/>
  <line x1="227.9685" y1="39.6937" x2="413.5280" y2="88.5243"/>
  <line x1="311.0344" y1="282.8780" x2="358.3429" y2="56.7126"/>
  <line x1="418.7084" y1="92.0800" x2="439.2839" y2="51.8132"/>
  <line x1="496.4733" y1="231.0806" x2="172.3939" y2="251.0957"/>
  <line x1="225.7553" y1="105.7679" x2="418.3109" y2="181.9840"/>
  <line x1="147.4891" y1="42.5062" x2="506.4581" y2="54.3750"/>
  <line x1="498.3339" y1="178.0047" x2="477.0846" y2="214.0576"/>
  <line x1="502.7391" y1="74.2864" x2="182.7562" y2="258.0309"/>
  <line x1="57.6596" y1="177.1567" x2="469.2959" y2="43.7236"/>
  <line x1="332.3216" y1="169.3719" x2="251.3747" y2="292.9123"/>
  <line x1="381.4383" y1="98.5087" x2="462.7517" y2="260.7405"/>
</g>
</svg>