<svg t="1735036564061" class="icon" viewBox="0 0 1024 1024" version="1.1" xmlns="http://www.w3.org/2000/svg" p-id="1019"
     width="16" height="16">
    <path d="M278.05625 634.625V466.1c0-32.90625-16.3125-63.73125-45-80.2125L118.53125 318.05V727.15625c0 10.29375 6.13125 20.53125 14.2875 24.69375l351.84375 205.5375v-133.59375c0-32.90625-16.36875-63.73125-45-80.2125L292.4 659.375c-8.2125-6.1875-14.34375-14.4-14.34375-24.69375"
          fill="#389FD6" p-id="1020"></path>
    <path d="M730.1375 659.31875l-147.31875 86.34375c-28.63125 16.425-45 47.25-45 80.15625v133.65l351.84375-205.59375a28.51875 28.51875 0 0 0 14.2875-24.6375v-411.1875l-114.525 65.8125c-28.63125 16.425-45 47.25-45 80.15625v168.58125c0 12.375-6.13125 20.53125-14.2875 26.71875"
          fill="#EE3306" p-id="1021"></path>
    <path d="M678.95 151.55L531.6875 65.20625a34.7625 34.7625 0 0 0-28.63125 0l-351.7875 205.59375 114.525 65.8125c28.6875 16.425 63.39375 16.425 90 0l147.2625-86.4c2.08125-2.025 4.10625-2.025 6.1875-2.025a28.85625 28.85625 0 0 1 22.5 2.025l147.20625 86.34375c28.6875 16.48125 63.45 16.48125 90 0l114.58125-65.8125-204.58125-119.19375z"
          fill="#5AB200" p-id="1022"></path>
</svg>