<!-- Copyright 2000-2024 JetBrains s.r.o. and contributors. Use of this source code is governed by the Apache 2.0 license. -->
<svg width="16" height="16" viewBox="0 0 16 16" fill="none" xmlns="http://www.w3.org/2000/svg">
<path d="M4 3C3.44772 3 3 3.44772 3 4V5.5C3 5.77614 2.77614 6 2.5 6C2.22386 6 2 5.77614 2 5.5V4C2 2.89543 2.89543 2 4 2H5.5C5.77614 2 6 2.22386 6 2.5C6 2.77614 5.77614 3 5.5 3H4Z" fill="#CED0D6"/>
<path d="M13 5.5V4C13 3.44772 12.5523 3 12 3L10.5 3C10.2239 3 10 2.77614 10 2.5C10 2.22386 10.2239 2 10.5 2H12C13.1046 2 14 2.89543 14 4V5.5C14 5.77614 13.7761 6 13.5 6C13.2239 6 13 5.77614 13 5.5Z" fill="#CED0D6"/>
<path d="M12 13L10.5 13C10.2239 13 10 13.2239 10 13.5C10 13.7761 10.2239 14 10.5 14L12 14C13.1046 14 14 13.1046 14 12V10.5C14 10.2239 13.7761 10 13.5 10C13.2239 10 13 10.2239 13 10.5V12C13 12.5523 12.5523 13 12 13Z" fill="#CED0D6"/>
<path d="M3 12C3 12.5523 3.44772 13 4 13H5.5C5.77614 13 6 13.2239 6 13.5C6 13.7761 5.77614 14 5.5 14H4C2.89543 14 2 13.1046 2 12V10.5C2 10.2239 2.22386 10 2.5 10C2.77614 10 3 10.2239 3 10.5L3 12Z" fill="#CED0D6"/>
<path fill-rule="evenodd" clip-rule="evenodd" d="M12 8C12 11 8 13 8 13C8 13 4 11 4 8V5L8 3.5L12 5V8ZM5 8V5.693L8 4.568L11 5.693V8C11 9.05356 10.2817 10.0497 9.3415 10.8724C8.89238 11.2654 8.43854 11.5779 8.095 11.7926C8.0622 11.8131 8.03049 11.8327 8 11.8513C7.96951 11.8327 7.9378 11.8131 7.905 11.7926C7.56146 11.5779 7.10762 11.2654 6.6585 10.8724C5.71825 10.0497 5 9.05356 5 8Z" fill="#548AF7"/>
</svg>
