<!-- Copyright 2000-2024 JetBrains s.r.o. and contributors. Use of this source code is governed by the Apache 2.0 license. -->
<svg width="16" height="16" viewBox="0 0 16 16" fill="none" xmlns="http://www.w3.org/2000/svg">
<path fill-rule="evenodd" clip-rule="evenodd" d="M14 9C14 10.1046 13.1046 11 12 11C10.8954 11 10 10.1046 10 9C10 7.89543 10.8954 7 12 7C13.1046 7 14 7.89543 14 9ZM13 9C13 9.55228 12.5523 10 12 10C11.4477 10 11 9.55228 11 9C11 8.44772 11.4477 8 12 8C12.5523 8 13 8.44772 13 9Z" fill="#6C707E"/>
<path fill-rule="evenodd" clip-rule="evenodd" d="M13 12H11C9.34315 12 8 13.3431 8 15C8 15.5523 8.44772 16 9 16H15C15.5523 16 16 15.5523 16 15C16 13.3431 14.6569 12 13 12ZM9 15C9 13.8954 9.89543 13 11 13H13C14.1046 13 15 13.8954 15 15H9Z" fill="#6C707E"/>
<path d="M13 6.17071V4.16667L8 2.08333L3 4.16667V9.17871C3 10.5557 3.67852 11.5977 4.69977 12.5129C5.38781 13.1295 6.22308 13.6773 7.07637 14.2182C7.02796 14.4625 7.0018 14.7148 7.00009 14.9729C7.00003 14.982 7 14.991 7 15C7 15.1282 7.01206 15.2536 7.03511 15.375C6.96684 15.3319 6.89799 15.2884 6.82869 15.2447C5.89187 14.6534 4.87083 14.009 4.03238 13.2576C2.89245 12.236 2 10.9446 2 9.17871V3.5L8 1L14 3.5L14 6.76389C13.7115 6.50564 13.3726 6.30241 13 6.17071Z" fill="#6C707E"/>
</svg>
