<svg width="16" height="16" viewBox="0 0 16 16" fill="none" xmlns="http://www.w3.org/2000/svg">
    <g clip-path="url(#clip0_302_213)">
        <path fill-rule="evenodd" clip-rule="evenodd"
              d="M6.66692 4.48152C6.92688 4.41436 7.2328 4.34401 7.60159 4.25922L8.33659 4.09024C8.88751 3.96356 9.16301 3.90021 9.36349 3.97802C9.53134 4.04316 9.66764 4.1705 9.74407 4.33353C9.83536 4.52826 9.79093 4.80743 9.70209 5.36577L9.40755 7.21714C9.30292 7.87477 9.25059 8.20357 9.09788 8.47044C8.96854 8.69646 8.78844 8.88931 8.57181 9.03377C8.31601 9.20435 7.99156 9.27899 7.34266 9.42826L6.45799 9.63174L6.29797 10.6349C6.20883 11.1937 6.16425 11.473 6.25556 11.6679C6.33199 11.831 6.46836 11.9584 6.63629 12.0235C6.83688 12.1013 7.11255 12.0378 7.66389 11.9108L8.39966 11.7413C9.48065 11.4922 10.0211 11.3677 10.4473 11.0834C10.8082 10.8426 11.1082 10.5213 11.3237 10.1447C11.5781 9.70004 11.6653 9.15222 11.8396 8.05661L12.4196 4.41226C12.6329 3.07229 12.7395 2.40231 12.5204 1.93492C12.3371 1.54362 12.01 1.23804 11.6071 1.08168C11.126 0.894912 10.4648 1.04687 9.1426 1.35079L6.66692 1.91982L5.3601 2.2202C4.27841 2.46883 3.73757 2.59314 3.31116 2.87742C2.95001 3.11818 2.64978 3.43961 2.43416 3.81632C2.17957 4.26113 2.09234 4.8092 1.91789 5.90538L1.07321 11.213C1.01217 11.5965 0.981647 11.7883 1.01168 11.9684C1.03714 12.1211 1.09398 12.2668 1.1786 12.3964C1.27839 12.5493 1.43067 12.6698 1.73523 12.9107L3.93508 14.6512C3.74295 14.4936 3.58643 14.2939 3.47914 14.0649C3.26019 13.5976 3.36674 12.928 3.57985 11.5886L4.15969 7.94448C4.33408 6.84835 4.42129 6.30027 4.67585 5.85546C4.89145 5.47875 5.19167 5.15732 5.55278 4.91654C5.83378 4.72921 6.16449 4.6113 6.66692 4.48152Z"
              fill="#9EB9FF"/>
        <path fill-rule="evenodd" clip-rule="evenodd"
              d="M9.33308 11.5185C9.07314 11.5857 8.76727 11.656 8.39852 11.7408L7.66354 11.9098L7.66352 11.9098C7.1126 12.0364 6.83713 12.0998 6.63662 12.022C6.46877 11.9568 6.33247 11.8295 6.25606 11.6665C6.16478 11.4717 6.20918 11.1926 6.29802 10.6342L6.59258 8.78287C6.69721 8.12524 6.74952 7.79644 6.90222 7.52956C7.03157 7.30355 7.21167 7.1107 7.42832 6.96624C7.68413 6.79566 8.00858 6.72102 8.65745 6.57177H8.65747L9.54212 6.36826L9.70216 5.3651C9.7913 4.80637 9.83586 4.52698 9.74457 4.33214C9.66814 4.16902 9.53177 4.04164 9.36382 3.97649C9.16322 3.89868 8.88756 3.96219 8.33624 4.08922L7.60047 4.25872C6.51946 4.50777 5.97897 4.63228 5.55282 4.91659C5.19193 5.15737 4.89191 5.47874 4.67644 5.85532C4.42204 6.29997 4.33487 6.84776 4.1605 7.94337V7.94339L3.58051 11.5877C3.36725 12.9277 3.26063 13.5977 3.47966 14.0651C3.66306 14.4564 3.99016 14.762 4.39299 14.9183C4.87415 15.1051 5.53528 14.9531 6.85751 14.6492L9.33319 14.0802V14.0801L10.6399 13.7798C11.7216 13.5311 12.2624 13.4068 12.6888 13.1225C13.05 12.8818 13.3502 12.5604 13.5658 12.1836C13.8204 11.7388 13.9076 11.1908 14.0821 10.0946L14.9268 4.78698C14.9878 4.40343 15.0184 4.21165 14.9883 4.0316C14.9629 3.87891 14.906 3.73316 14.8214 3.60352C14.7216 3.45068 14.5693 3.3302 14.2648 3.08924L12.0649 1.34879C12.257 1.50637 12.4136 1.70603 12.5209 1.93504C12.7398 2.40232 12.6332 3.072 12.4202 4.41135V4.41137L11.8403 8.05548C11.6659 9.15162 11.5787 9.69969 11.3241 10.1445C11.1085 10.5212 10.8083 10.8426 10.4472 11.0834C10.1662 11.2708 9.83551 11.3887 9.33308 11.5184V11.5185Z"
              fill="#5282FF"/>
    </g>
    <defs>
        <clipPath id="clip0_302_213">
            <rect width="14" height="14" fill="white" transform="translate(1 1)"/>
        </clipPath>
    </defs>
</svg>
