<svg t="1734861958843" class="icon" viewBox="0 0 1024 1024" version="1.1" xmlns="http://www.w3.org/2000/svg" p-id="957"
     width="16" height="16">
    <path d="M745.8250113 860.44577104H236.69178523c-71.72210261 0-132.18006967-25.45957401-174.81968143-73.62590017-37.24427923-42.06698515-57.75472326-98.24884441-57.75472326-158.21227029 0-107.27948831 69.65965526-215.86535853 202.9329212-219.97785873 5.46969963-58.84544061 29.97737487-111.98072798 71.90554144-155.22271319 54.55693829-56.26986031 135.67036519-89.86023641 216.99573832-89.8602364 110.89620788 0 203.28740434 58.92972332 251.54173156 158.96833572a315.3834013 315.3834013 0 0 1 22.52827113-0.82547472c166.70871058 0 253.92891521 134.19293898 253.92891521 266.7423652 0 71.03668593-24.38744844 137.18621443-68.66437568 186.27345308-50.62167966 56.0913793-123.04779075 85.74029949-209.46111242 85.7402995z m-530.91906573-387.16871595c-100.33608079 0-146.03341949 80.51725072-146.0334195 155.33674273 0 43.48863606 15.12130874 85.50604316 41.48444292 115.28138743 30.00216389 33.88164721 73.6891122 51.78924301 126.33481624 51.78924301h509.13322607c67.57117942 0 123.37128759-22.25435234 161.36419555-64.36099995 33.52716406-37.16123597 51.99375251-87.91057915 51.9937525-142.8926493 0-97.2771144-59.2011632-201.98598022-189.17376968-201.98598023-12.22223159 0-25.00965311 0.95809603-38.00034466 2.85569635l-25.44098224 3.7059601-9.37892978-23.93133027c-35.07399957-89.46485136-108.42722043-140.77318718-201.249746-140.77318718-64.15896934 0-127.89900406 26.23423123-170.50515064 70.18022491-37.47977502 38.65353563-56.39628437 87.96263611-54.70939082 142.58278642l1.13657705 36.83154187-36.67289206-3.60432507a209.34212508 209.34212508 0 0 0-20.28238495-1.01635027z"
          fill="#CED0D6" p-id="958"></path>
</svg>