<!-- Copyright 2000-2024 JetBrains s.r.o. and contributors. Use of this source code is governed by the Apache 2.0 license. -->
<svg width="16" height="16" viewBox="0 0 16 16" fill="none" xmlns="http://www.w3.org/2000/svg">
<path d="M2.5 9V8C2.5 4.96243 4.96243 2.5 8 2.5C9.10679 2.5 10.1372 2.82692 11 3.38947" stroke="#CED0D6" stroke-linecap="round"/>
<path d="M5 12.6105C5.86278 13.1731 6.89321 13.5 8 13.5C11.0376 13.5 13.5 11.0376 13.5 8V7" stroke="#CED0D6" stroke-linecap="round"/>
<path d="M0.49997 7.50024L2.5 9.49997L4.49998 7.5002" stroke="#CED0D6" stroke-linecap="round"/>
<path d="M11.5 8.49979L13.5 6.49997L15.5 8.49979" stroke="#CED0D6" stroke-linecap="round"/>
<path d="M9 9.5H7C6.72386 9.5 6.5 9.27614 6.5 9V7C6.5 6.72386 6.72386 6.5 7 6.5H9C9.27614 6.5 9.5 6.72386 9.5 7V9C9.5 9.27614 9.27614 9.5 9 9.5Z" fill="#25324D" stroke="#548AF7" stroke-linecap="round"/>
</svg>
