<!-- Copyright 2000-2024 JetBrains s.r.o. and contributors. Use of this source code is governed by the Apache 2.0 license. -->
<svg width="16" height="16" viewBox="0 0 16 16" fill="none" xmlns="http://www.w3.org/2000/svg">
<rect x="11" y="12" width="4" height="3" fill="#EDF3FF"/>
<path fill-rule="evenodd" clip-rule="evenodd" d="M15 11V10C15 8.89543 14.1046 8 13 8C11.8954 8 11 8.89543 11 10V11C10.4477 11 10 11.4477 10 12V15C10 15.5523 10.4477 16 11 16H15C15.5523 16 16 15.5523 16 15V12C16 11.4477 15.5523 11 15 11ZM12 10C12 9.44772 12.4477 9 13 9C13.5523 9 14 9.44772 14 10V11H12V10ZM11 15L11 12H15V15H11Z" fill="#3574F0"/>
<path d="M11.1464 2.14645C11.3417 1.95118 11.6583 1.95118 11.8536 2.14645L14.8536 5.14645C15.0488 5.34171 15.0488 5.65829 14.8536 5.85355C14.6583 6.04882 14.3417 6.04882 14.1464 5.85355L12 3.70711V7.17071C11.6274 7.30241 11.2885 7.50564 11 7.76389V3.70711L8.85355 5.85355C8.65829 6.04882 8.34171 6.04882 8.14645 5.85355C7.95118 5.65829 7.95118 5.34171 8.14645 5.14645L11.1464 2.14645Z" fill="#6C707E"/>
<path d="M4.5 5C4.77614 5 5 5.22386 5 5.5V12.2929L7.14645 10.1464C7.34171 9.95118 7.65829 9.95118 7.85355 10.1464C8.04882 10.3417 8.04882 10.6583 7.85355 10.8536L4.85355 13.8536C4.65829 14.0488 4.34171 14.0488 4.14645 13.8536L1.14645 10.8536C0.951184 10.6583 0.951184 10.3417 1.14645 10.1464C1.34171 9.95118 1.65829 9.95118 1.85355 10.1464L4 12.2929V5.5C4 5.22386 4.22386 5 4.5 5Z" fill="#6C707E"/>
</svg>
