<svg width="16" height="16" viewBox="0 0 16 16" fill="none" xmlns="http://www.w3.org/2000/svg">
<path d="M2.87872 1.12117L1.46451 2.53538L2.13233 3.28177L1.46451 3.9496L2.40732 4.89241L0.7574 4.6567L0.050293 5.36381L2.87872 8.19224L3.58583 7.48513L3.35012 5.83521L4.29293 6.77802L4.80362 6.26733L12.7805 15.1826C13.1633 15.6105 13.8269 15.6289 14.2328 15.2229L15.5663 13.8895C15.9722 13.4835 15.9538 12.8199 15.526 12.4371L6.61067 4.46028L7.12136 3.9496L6.41425 3.24249L8.53557 2.53538L6.41425 0.414062L4.29293 1.12117L3.62511 1.78899L2.87872 1.12117Z" fill="#808080"/>
<path d="M15.0978 2.354L13.6836 0.93979L10.8551 2.354V3.76822L9.31187 5.31149L10.7261 6.72571L12.2694 5.18243H13.6836L15.0978 2.354Z" fill="#808080"/>
<path d="M4.9054 9.71797L5.81187 8.81149L7.22608 10.2257L6.31961 11.1322L7.02672 11.8393L3.73074 15.1353C3.34021 15.5258 2.70705 15.5258 2.31652 15.1353L0.902308 13.7211C0.511784 13.3305 0.511785 12.6974 0.902308 12.3068L4.19829 9.01086L4.9054 9.71797Z" fill="#808080"/>
</svg>
