<svg width="14" height="16" viewBox="0 0 14 16" fill="none" xmlns="http://www.w3.org/2000/svg">
<path fill-rule="evenodd" clip-rule="evenodd" d="M14 4.5142C14 4.14841 13.8077 3.81066 13.4961 3.62917L7.49614 0.134305C7.18871 -0.0447681 6.81129 -0.0447682 6.50386 0.134304L0.503861 3.62917C0.192286 3.81065 0 4.14841 0 4.5142V11.4858C0 11.8516 0.192286 12.1893 0.503861 12.3708L6.50386 15.8657C6.81129 16.0448 7.18871 16.0448 7.49614 15.8657L13.4961 12.3708C13.8077 12.1893 14 11.8516 14 11.4858V4.5142ZM6 4.94199C6 4.37903 6.44772 3.92266 7 3.92266C7.55228 3.92266 8 4.37903 8 4.94199V8C8 8.56296 7.55228 9.01934 7 9.01934C6.44772 9.01934 6 8.56296 6 8V4.94199ZM6 11.058C6 10.495 6.44772 10.0387 7 10.0387C7.55228 10.0387 8 10.495 8 11.058C8 11.621 7.55228 12.0773 7 12.0773C6.44772 12.0773 6 11.621 6 11.058Z" fill="#F73F6B"/>
</svg>
