<svg width="14" height="14" viewBox="0 0 14 14" fill="none" xmlns="http://www.w3.org/2000/svg">
<path fill-rule="evenodd" clip-rule="evenodd" d="M7 0C10.866 0 14 3.13401 14 7V12C14 13.1046 13.1046 14 12 14H7C3.13401 14 0 10.866 0 7C0 3.13401 3.13401 0 7 0ZM6.70711 4.29289C6.31658 3.90237 5.68342 3.90237 5.29289 4.29289C4.90237 4.68342 4.90237 5.31658 5.29289 5.70711C6.00694 6.42115 6.00694 7.57885 5.29289 8.29289C4.90237 8.68342 4.90237 9.31658 5.29289 9.70711C5.68342 10.0976 6.31658 10.0976 6.70711 9.70711L8 8.41421C8.78105 7.63316 8.78105 6.36684 8 5.58579L6.70711 4.29289Z" fill="#6978FF"/>
</svg>
