<svg width="16" height="16" viewBox="0 0 16 16" fill="none" xmlns="http://www.w3.org/2000/svg">
<path fill-rule="evenodd" clip-rule="evenodd" d="M9.42277 1.70711C9.81329 1.31658 10.4465 1.31658 10.837 1.70711L14.2929 5.16302C14.6834 5.55354 14.6834 6.18671 14.2929 6.57723L6.16302 14.7071C5.97548 14.8946 5.72112 15 5.45591 15H2C1.44772 15 1 14.5523 1 14V10.5441C1 10.2789 1.10536 10.0245 1.29289 9.83699L9.42277 1.70711ZM2.94253 10.9345V13.0575H5.0655L11.5457 6.57723C11.9363 6.18671 11.9363 5.55354 11.5457 5.16302L10.837 4.45426C10.4465 4.06373 9.8133 4.06373 9.42277 4.45425L2.94253 10.9345Z" fill="#808080"/>
</svg>
