<svg width="14" height="9" viewBox="0 0 14 9" fill="none" xmlns="http://www.w3.org/2000/svg">
<path fill-rule="evenodd" clip-rule="evenodd" d="M10 7.06041e-09C13 -0.000137216 14 2.00004 14 5.00003C14 8.00002 14 9.00001 12 9.00001C10.6572 9.00001 9.69006 7.82613 9.21678 7.25168C9.12613 7.14165 9.05358 7.0536 9 7.00002L5 7.00004C4.94641 7.05362 4.87388 7.14166 4.78322 7.2517C4.30994 7.82615 3.34279 9.00003 2 9.00003C0 9.00003 0 8.00003 0 5.00004C0 2.00006 1 0 4 1.57589e-05C7 3.15178e-05 10 7.06041e-09 10 7.06041e-09ZM12 4C12 5.10457 11.1046 6 10 6C8.89543 6 8 5.10457 8 4C8 2.89543 8.89543 2 10 2C11.1046 2 12 2.89543 12 4ZM4.5 3.5V2H3.5V3.5H2V4.5H3.5V6H4.5V4.5H6V3.5H4.5Z" fill="#808080"/>
</svg>
