<svg width="16" height="14" viewBox="0 0 16 14" fill="none" xmlns="http://www.w3.org/2000/svg">
<path fill-rule="evenodd" clip-rule="evenodd" d="M15 4C15.5523 4 16 3.55228 16 3C16 2.44772 15.5523 2 15 2H13C12.9435 2 12.8881 2.00469 12.8341 2.0137C12.4262 0.841356 11.3113 5.73201e-08 10 0C8.69378 -5.70966e-08 7.58254 0.834808 7.17071 2L1 2C0.447715 2 2.41411e-08 2.44771 0 3C-2.41411e-08 3.55228 0.447715 4 1 4L7.17071 4C7.58254 5.16519 8.69378 6 10 6C11.3113 6 12.4262 5.15864 12.8341 3.9863C12.8881 3.99531 12.9435 4 13 4H15ZM9 3C9 2.44772 9.44772 2 10 2C10.5523 2 11 2.44772 11 3C11 3.55228 10.5523 4 10 4C9.44772 4 9 3.55228 9 3Z" fill="white"/>
<path fill-rule="evenodd" clip-rule="evenodd" d="M15 12C15.5523 12 16 11.5523 16 11C16 10.4477 15.5523 10 15 10L8.82929 10C8.41746 8.83481 7.30622 8 6 8C4.69378 8 3.58254 8.83481 3.17071 10H1C0.447715 10 2.41411e-08 10.4477 0 11C-2.41411e-08 11.5523 0.447715 12 1 12H3.17071C3.58254 13.1652 4.69378 14 6 14C7.30622 14 8.41746 13.1652 8.82929 12L15 12ZM5 11C5 10.4477 5.44772 10 6 10C6.55228 10 7 10.4477 7 11C7 11.5523 6.55228 12 6 12C5.44772 12 5 11.5523 5 11Z" fill="white"/>
</svg>
